<svg xmlns="http://www.w3.org/2000/svg" viewBox="0 0 32 32">
  <!-- Pixel Shield: shield silhouette made of pixel blocks -->
  <!-- Row 1 (top) -->
  <rect x="8" y="2" width="4" height="4" fill="#4f46e5"/>
  <rect x="12" y="2" width="4" height="4" fill="#6366f1"/>
  <rect x="16" y="2" width="4" height="4" fill="#6366f1"/>
  <rect x="20" y="2" width="4" height="4" fill="#4f46e5"/>
  <!-- Row 2 -->
  <rect x="4" y="6" width="4" height="4" fill="#4f46e5"/>
  <rect x="8" y="6" width="4" height="4" fill="#6366f1"/>
  <rect x="12" y="6" width="4" height="4" fill="#818cf8"/>
  <rect x="16" y="6" width="4" height="4" fill="#818cf8"/>
  <rect x="20" y="6" width="4" height="4" fill="#6366f1"/>
  <rect x="24" y="6" width="4" height="4" fill="#4f46e5"/>
  <!-- Row 3 -->
  <rect x="4" y="10" width="4" height="4" fill="#4f46e5"/>
  <rect x="8" y="10" width="4" height="4" fill="#6366f1"/>
  <rect x="12" y="10" width="4" height="4" fill="#818cf8"/>
  <rect x="16" y="10" width="4" height="4" fill="#818cf8"/>
  <rect x="20" y="10" width="4" height="4" fill="#6366f1"/>
  <rect x="24" y="10" width="4" height="4" fill="#4f46e5"/>
  <!-- Row 4 -->
  <rect x="4" y="14" width="4" height="4" fill="#4f46e5"/>
  <rect x="8" y="14" width="4" height="4" fill="#6366f1"/>
  <rect x="12" y="14" width="4" height="4" fill="#818cf8"/>
  <rect x="16" y="14" width="4" height="4" fill="#818cf8"/>
  <rect x="20" y="14" width="4" height="4" fill="#6366f1"/>
  <rect x="24" y="14" width="4" height="4" fill="#4f46e5"/>
  <!-- Row 5 (narrowing) -->
  <rect x="8" y="18" width="4" height="4" fill="#4f46e5"/>
  <rect x="12" y="18" width="4" height="4" fill="#6366f1"/>
  <rect x="16" y="18" width="4" height="4" fill="#6366f1"/>
  <rect x="20" y="18" width="4" height="4" fill="#4f46e5"/>
  <!-- Row 6 -->
  <rect x="8" y="22" width="4" height="4" fill="#4f46e5"/>
  <rect x="12" y="22" width="4" height="4" fill="#6366f1"/>
  <rect x="16" y="22" width="4" height="4" fill="#6366f1"/>
  <rect x="20" y="22" width="4" height="4" fill="#4f46e5"/>
  <!-- Row 7 (point) -->
  <rect x="12" y="26" width="4" height="4" fill="#4f46e5"/>
  <rect x="16" y="26" width="4" height="4" fill="#4f46e5"/>
</svg>
